<svg xmlns="http://www.w3.org/2000/svg" viewBox="0 0 29 29" width="29" height="29"><path d="M26.4,6.23a14.47,14.47,0,1,0,2.4,10.7A14.54,14.54,0,0,0,26.4,6.23Zm1.54,10.54a13.35,13.35,0,0,1-15.7,10.48,13.59,13.59,0,0,1-8.46-5.49,13.42,13.42,0,1,1,24.16-5Zm-6.3-2.38a.22.22,0,0,1-.16.16,21.59,21.59,0,0,1-3.41.6c-.81.09-1.63.13-2.44.16,0,.81,0,1.63-.13,2.44a18.7,18.7,0,0,1-.64,3.42.22.22,0,0,1-.28.15.23.23,0,0,1-.15-.15,17.86,17.86,0,0,1-.63-3.42c-.09-.81-.13-1.62-.14-2.43-.81,0-1.62-.05-2.43-.13a18.7,18.7,0,0,1-3.42-.64.22.22,0,0,1-.15-.28.23.23,0,0,1,.15-.15,18.7,18.7,0,0,1,3.42-.64c.81-.09,1.63-.12,2.44-.13,0-.81.07-1.62.16-2.43a21.51,21.51,0,0,1,.6-3.42.24.24,0,0,1,.28-.16.24.24,0,0,1,.15.16,20.44,20.44,0,0,1,.6,3.42c.09.81.13,1.63.16,2.44.82,0,1.63.07,2.45.16a21.59,21.59,0,0,1,3.41.6A.23.23,0,0,1,21.64,14.39Z"/></svg> 
