<svg xmlns="http://www.w3.org/2000/svg" viewBox="0 0 29 29" width="29" height="29"><path d="M14.47,29a.22.22,0,0,1-.19-.18c-.34-2.39-.52-4.78-.64-7.17-.1-2.05-.14-4.1-.14-6.16-2.06,0-4.11,0-6.16-.14-2.39-.12-4.78-.3-7.17-.64A.22.22,0,0,1,0,14.47a.2.2,0,0,1,.18-.18c2.39-.35,4.78-.53,7.17-.65,2.05-.1,4.11-.14,6.16-.14,0-2.05.07-4.11.18-6.16C13.8,5,14,2.56,14.28.18A.22.22,0,0,1,14.53,0a.2.2,0,0,1,.18.19c.32,2.38.49,4.77.61,7.16.11,2.05.15,4.11.17,6.17,2.06,0,4.12.06,6.17.17,2.39.12,4.78.29,7.16.61a.21.21,0,0,1,.19.24.22.22,0,0,1-.19.19c-2.38.31-4.77.48-7.16.6-2.05.11-4.11.15-6.16.18,0,2.05,0,4.11-.14,6.16-.12,2.39-.3,4.78-.65,7.17A.2.2,0,0,1,14.47,29Z"/></svg> 
